HIERARCHY
ROOT Hips
{
	OFFSET 0.000000 100.481300 0.000000
	CHANNELS 6 Xposition Yposition Zposition Xrotation Yrotation Zrotation
	JOINT Spine
	{
		OFFSET -0.279200 12.230698 -2.892100
		CHANNELS 3 Xrotation Yrotation Zrotation
		JOINT Spine1
		{
			OFFSET -0.325700 14.269203 -3.374200
			CHANNELS 3 Xrotation Yrotation Zrotation
			JOINT Spine2
			{
				OFFSET -0.372300 16.307602 -0.352600
				CHANNELS 3 Xrotation Yrotation Zrotation
				JOINT Neck
				{
					OFFSET -0.418800 17.814194 8.416900
					CHANNELS 3 Xrotation Yrotation Zrotation
					JOINT Head
					{
						OFFSET 0.000000 7.031097 3.806800
						CHANNELS 3 Xrotation Yrotation Zrotation
						JOINT HeadTop_End
						{
							OFFSET 0.000000 24.646606 12.978600
							CHANNELS 3 Xrotation Yrotation Zrotation
							End Site
							{
								OFFSET 0.000000 27.854965 0.000000
							}
						}
					}
				}
				JOINT LeftShoulder
				{
					OFFSET 16.952999 14.495407 -7.737500
					CHANNELS 3 Xrotation Yrotation Zrotation
					JOINT LeftArm
					{
						OFFSET 9.308998 -2.777710 0.208600
						CHANNELS 3 Xrotation Yrotation Zrotation
						JOINT LeftForeArm
						{
							OFFSET 29.972298 0.000000 0.000000
							CHANNELS 3 Xrotation Yrotation Zrotation
							JOINT LeftHand
							{
								OFFSET 26.026505 0.000000 0.000000
								CHANNELS 3 Xrotation Yrotation Zrotation
								JOINT LeftHandThumb1
								{
									OFFSET 12.240501 -7.147949 9.207150
									CHANNELS 3 Xrotation Yrotation Zrotation
									JOINT LeftHandThumb2
									{
										OFFSET 4.138618 -2.389435 2.389433
										CHANNELS 3 Xrotation Yrotation Zrotation
										JOINT LeftHandThumb3
										{
											OFFSET 2.726913 -1.574387 1.574386
											CHANNELS 3 Xrotation Yrotation Zrotation
											JOINT LeftHandThumb4
											{
												OFFSET 3.941010 -2.275345 2.275342
												CHANNELS 3 Xrotation Yrotation Zrotation
												End Site
												{
													OFFSET -0.005798 5.087799 0.009903
												}
											}
										}
									}
								}
								JOINT LeftHandIndex1
								{
									OFFSET 24.424698 -1.985611 5.953459
									CHANNELS 3 Xrotation Yrotation Zrotation
									JOINT LeftHandIndex2
									{
										OFFSET 6.426697 0.000000 0.000000
										CHANNELS 3 Xrotation Yrotation Zrotation
										JOINT LeftHandIndex3
										{
											OFFSET 5.337898 0.000000 0.000000
											CHANNELS 3 Xrotation Yrotation Zrotation
											JOINT LeftHandIndex4
											{
												OFFSET 4.409401 0.000000 0.000000
												CHANNELS 3 Xrotation Yrotation Zrotation
												End Site
												{
													OFFSET 0.000000 4.409363 0.014373
												}
											}
										}
									}
								}
								JOINT LeftHandMiddle1
								{
									OFFSET 23.810104 0.000000 0.000000
									CHANNELS 3 Xrotation Yrotation Zrotation
									JOINT LeftHandMiddle2
									{
										OFFSET 7.176498 0.000000 0.000000
										CHANNELS 3 Xrotation Yrotation Zrotation
										JOINT LeftHandMiddle3
										{
											OFFSET 6.774902 0.000000 0.000000
											CHANNELS 3 Xrotation Yrotation Zrotation
											JOINT LeftHandMiddle4
											{
												OFFSET 5.403328 0.000000 0.000000
												CHANNELS 3 Xrotation Yrotation Zrotation
												End Site
												{
													OFFSET -0.027702 5.403244 0.017414
												}
											}
										}
									}
								}
								JOINT LeftHandRing1
								{
									OFFSET 22.908401 -0.839279 -6.020567
									CHANNELS 3 Xrotation Yrotation Zrotation
									JOINT LeftHandRing2
									{
										OFFSET 6.337502 0.000000 0.000000
										CHANNELS 3 Xrotation Yrotation Zrotation
										JOINT LeftHandRing3
										{
											OFFSET 5.779297 0.000000 0.000000
											CHANNELS 3 Xrotation Yrotation Zrotation
											JOINT LeftHandRing4
											{
												OFFSET 4.965698 0.000000 0.000000
												CHANNELS 3 Xrotation Yrotation Zrotation
												End Site
												{
													OFFSET 0.000000 4.965668 0.016186
												}
											}
										}
									}
								}
								JOINT LeftHandPinky1
								{
									OFFSET 20.037003 -1.530319 -10.950146
									CHANNELS 3 Xrotation Yrotation Zrotation
									JOINT LeftHandPinky2
									{
										OFFSET 5.254700 0.000000 0.000000
										CHANNELS 3 Xrotation Yrotation Zrotation
										JOINT LeftHandPinky3
										{
											OFFSET 4.810204 0.000000 0.000000
											CHANNELS 3 Xrotation Yrotation Zrotation
											JOINT LeftHandPinky4
											{
												OFFSET 3.647202 0.000000 0.000000
												CHANNELS 3 Xrotation Yrotation Zrotation
												End Site
												{
													OFFSET 0.000000 3.647186 0.011889
												}
											}
										}
									}
								}
							}
						}
					}
				}
				JOINT RightShoulder
				{
					OFFSET -15.141001 14.495407 -7.737500
					CHANNELS 3 Xrotation Yrotation Zrotation
					JOINT RightArm
					{
						OFFSET -9.308998 -2.777710 0.208500
						CHANNELS 3 Xrotation Yrotation Zrotation
						JOINT RightForeArm
						{
							OFFSET -29.972300 0.000000 0.000000
							CHANNELS 3 Xrotation Yrotation Zrotation
							JOINT RightHand
							{
								OFFSET -26.026505 0.000000 0.000000
								CHANNELS 3 Xrotation Yrotation Zrotation
								JOINT RightHandThumb1
								{
									OFFSET -12.240601 -7.148026 9.207092
									CHANNELS 3 Xrotation Yrotation Zrotation
									JOINT RightHandThumb2
									{
										OFFSET -4.138618 -2.389435 2.389433
										CHANNELS 3 Xrotation Yrotation Zrotation
										JOINT RightHandThumb3
										{
											OFFSET -2.726974 -1.574417 1.574421
											CHANNELS 3 Xrotation Yrotation Zrotation
											JOINT RightHandThumb4
											{
												OFFSET -3.941010 -2.275345 2.275343
												CHANNELS 3 Xrotation Yrotation Zrotation
												End Site
												{
													OFFSET 0.005814 5.087799 0.009927
												}
											}
										}
									}
								}
								JOINT RightHandIndex1
								{
									OFFSET -24.424698 -1.985657 5.953444
									CHANNELS 3 Xrotation Yrotation Zrotation
									JOINT RightHandIndex2
									{
										OFFSET -6.426697 0.000000 0.000000
										CHANNELS 3 Xrotation Yrotation Zrotation
										JOINT RightHandIndex3
										{
											OFFSET -5.337898 0.000000 0.000000
											CHANNELS 3 Xrotation Yrotation Zrotation
											JOINT RightHandIndex4
											{
												OFFSET -4.409401 0.000000 0.000000
												CHANNELS 3 Xrotation Yrotation Zrotation
												End Site
												{
													OFFSET 0.000000 4.409363 0.014408
												}
											}
										}
									}
								}
								JOINT RightHandMiddle1
								{
									OFFSET -23.810097 0.000000 0.000000
									CHANNELS 3 Xrotation Yrotation Zrotation
									JOINT RightHandMiddle2
									{
										OFFSET -7.176498 0.000000 0.000000
										CHANNELS 3 Xrotation Yrotation Zrotation
										JOINT RightHandMiddle3
										{
											OFFSET -6.774902 0.000000 0.000000
											CHANNELS 3 Xrotation Yrotation Zrotation
											JOINT RightHandMiddle4
											{
												OFFSET -5.403328 0.000000 0.000000
												CHANNELS 3 Xrotation Yrotation Zrotation
												End Site
												{
													OFFSET 0.027702 5.403244 0.017457
												}
											}
										}
									}
								}
								JOINT RightHandRing1
								{
									OFFSET -22.908302 -0.839325 -6.020576
									CHANNELS 3 Xrotation Yrotation Zrotation
									JOINT RightHandRing2
									{
										OFFSET -6.337502 0.000000 0.000000
										CHANNELS 3 Xrotation Yrotation Zrotation
										JOINT RightHandRing3
										{
											OFFSET -5.779297 0.000000 0.000000
											CHANNELS 3 Xrotation Yrotation Zrotation
											JOINT RightHandRing4
											{
												OFFSET -4.965698 0.000000 0.000000
												CHANNELS 3 Xrotation Yrotation Zrotation
												End Site
												{
													OFFSET 0.000000 4.965668 0.016226
												}
											}
										}
									}
								}
								JOINT RightHandPinky1
								{
									OFFSET -20.037003 -1.530334 -10.950259
									CHANNELS 3 Xrotation Yrotation Zrotation
									JOINT RightHandPinky2
									{
										OFFSET -5.254700 0.000000 0.000000
										CHANNELS 3 Xrotation Yrotation Zrotation
										JOINT RightHandPinky3
										{
											OFFSET -4.810204 0.000000 0.000000
											CHANNELS 3 Xrotation Yrotation Zrotation
											JOINT RightHandPinky4
											{
												OFFSET -3.647202 0.000000 0.000000
												CHANNELS 3 Xrotation Yrotation Zrotation
												End Site
												{
													OFFSET 0.000000 3.647186 0.011917
												}
											}
										}
									}
								}
							}
						}
					}
				}
			}
		}
	}
	JOINT LeftUpLeg
	{
		OFFSET 15.427100 -6.655098 0.678600
		CHANNELS 3 Xrotation Yrotation Zrotation
		JOINT LeftLeg
		{
			OFFSET 4.081073 -39.591068 13.024000
			CHANNELS 3 Xrotation Yrotation Zrotation
			JOINT LeftFoot
			{
				OFFSET -4.081074 -37.707932 -15.979700
				CHANNELS 3 Xrotation Yrotation Zrotation
				JOINT LeftToeBase
				{
					OFFSET 5.346399 -15.068900 20.645000
					CHANNELS 3 Xrotation Yrotation Zrotation
					JOINT LeftToe_End
					{
						OFFSET 2.754700 0.931300 11.300900
						CHANNELS 3 Xrotation Yrotation Zrotation
						End Site
						{
							OFFSET 0.000000 11.669021 0.000000
						}
					}
				}
			}
		}
	}
	JOINT RightUpLeg
	{
		OFFSET -15.569500 -6.655098 0.678600
		CHANNELS 3 Xrotation Yrotation Zrotation
		JOINT RightLeg
		{
			OFFSET -4.081825 -39.591045 13.023800
			CHANNELS 3 Xrotation Yrotation Zrotation
			JOINT RightFoot
			{
				OFFSET 4.081824 -37.707954 -15.979600
				CHANNELS 3 Xrotation Yrotation Zrotation
				JOINT RightToeBase
				{
					OFFSET -5.346400 -15.068900 20.645000
					CHANNELS 3 Xrotation Yrotation Zrotation
					JOINT RightToe_End
					{
						OFFSET -2.754700 0.931300 11.300900
						CHANNELS 3 Xrotation Yrotation Zrotation
						End Site
						{
							OFFSET 0.000000 11.669021 0.000000
						}
					}
				}
			}
		}
	}
}
MOTION
Frames: 4
Frame Time: 0.033333
2.195112 72.839005 -1.714688 -5.400172 -46.432077 -0.526813 9.420036 7.435529 -1.366543 2.187603 0.990502 -0.909219 2.202829 0.982776 -0.894153 0.084650 13.220554 4.538681 8.920925 20.138130 -4.130232 0.000000 -0.000000 -0.000000 1.117180 3.546359 -8.633306 -53.518289 4.985797 -51.576282 -0.000050 -106.355259 -0.000053 2.031620 -7.714682 -15.943480 -6.141231 -11.690798 -6.761702 9.914101 42.595519 3.409880 -0.422800 8.108092 27.509104 -0.000002 0.000001 0.000000 0.255315 3.378215 -45.814341 5.654091 5.847752 -88.067462 2.162142 4.544813 -50.866362 -0.000000 -0.000001 0.000000 -0.461472 3.841595 -39.722693 6.450754 5.820357 -95.892871 2.182893 4.561571 -51.127729 0.000002 -0.000001 0.000001 0.469721 4.966827 -39.799441 8.181043 5.368614 -113.503011 3.200489 5.218117 -63.022982 -0.000000 0.000000 0.000002 -3.762431 9.063684 -45.253828 5.342532 5.829012 -85.005331 8.716839 5.103337 -119.369181 0.000000 0.000000 -0.000001 3.037737 13.027041 -5.371399 -48.717069 27.178221 83.457528 0.000022 105.984517 -0.000028 -8.345369 17.548086 8.775674 -7.341122 13.749649 7.412345 9.855803 -44.489089 -3.903257 -0.115784 -14.513073 -28.973874 -0.000000 0.000001 -0.000000 -0.124375 -2.384788 45.108874 4.500579 -4.654543 88.071143 1.723232 -3.618377 50.920122 -0.000001 -0.000001 -0.000002 -0.761622 -2.932899 39.031068 5.133890 -4.632759 95.881656 1.739744 -3.631705 51.181367 0.000000 0.000001 0.000002 0.154760 -4.068818 39.122664 6.509730 -4.273602 113.462891 2.549588 -4.153923 63.067337 -0.000000 0.000001 0.000001 -4.198879 -8.025509 44.637766 4.252906 -4.639636 85.014791 6.935967 -4.062626 119.322312 -0.000002 0.000000 0.000000 -34.255513 5.085959 20.300763 56.771713 -7.633991 3.672693 -20.133036 -7.078567 -17.222780 -1.594034 -0.000012 0.000000 -0.000000 0.000000 -0.000000 -19.408623 -8.980197 -34.667629 57.007993 -2.876358 -4.766511 -26.306532 -10.338600 26.246265 -0.012997 0.000021 0.000002 0.000000 -0.000000 -0.000000 
2.510722 71.702904 -0.481253 -5.819752 -46.394535 -0.837812 9.840017 7.564563 -1.351402 2.630525 1.195997 -0.942539 2.641796 1.188239 -0.905712 -0.129040 13.072975 4.946548 9.011850 19.726599 -4.148964 -0.000000 -0.000000 -0.000000 1.390897 4.755535 -7.210760 -50.957750 4.225818 -54.983692 0.000174 -105.618514 0.000158 3.977434 -6.930429 -14.813377 -6.141232 -11.690799 -6.761701 9.914103 42.595519 3.409874 -0.422800 8.108088 27.509103 -0.000003 0.000001 -0.000001 0.255314 3.378215 -45.814337 5.654092 5.847754 -88.067462 2.162140 4.544813 -50.866365 0.000002 0.000001 0.000000 -0.461472 3.841593 -39.722690 6.450751 5.820357 -95.892871 2.182891 4.561567 -51.127729 -0.000001 -0.000003 0.000000 0.469721 4.966823 -39.799437 8.181041 5.368614 -113.503011 3.200489 5.218120 -63.022982 0.000001 0.000000 0.000001 -3.762431 9.063683 -45.253821 5.342533 5.829009 -85.005331 8.716838 5.103338 -119.369167 -0.000001 -0.000000 0.000001 2.966291 12.533727 -5.226313 -48.475891 27.207843 83.528610 -0.000066 106.857258 0.000074 -8.055724 17.843113 8.535447 -7.341122 13.749652 7.412342 9.855800 -44.489079 -3.903254 -0.115788 -14.513071 -28.973878 0.000001 -0.000002 0.000002 -0.124377 -2.384787 45.108874 4.500579 -4.654542 88.071143 1.723235 -3.618376 50.920126 -0.000000 -0.000002 -0.000001 -0.761623 -2.932900 39.031065 5.133891 -4.632759 95.881656 1.739745 -3.631704 51.181363 0.000001 -0.000002 -0.000000 0.154761 -4.068815 39.122664 6.509734 -4.273602 113.462891 2.549588 -4.153924 63.067330 0.000001 -0.000000 0.000000 -4.198878 -8.025506 44.637766 4.252907 -4.639635 85.014791 6.935966 -4.062629 119.322312 0.000001 0.000001 0.000000 -34.651783 4.336949 20.139287 60.235814 -5.482474 3.215583 -21.239597 -7.090010 -17.190823 -3.332549 0.000011 -0.000001 0.000000 0.000001 0.000000 -19.981887 -9.812898 -37.020120 57.604299 -0.080359 -4.161981 -26.572064 -10.760511 25.923606 -1.266889 -0.000031 0.000001 -0.000000 0.000001 0.000000 
3.101277 70.049141 1.790134 -6.491868 -46.892121 -1.424442 10.162504 7.886599 -1.055844 3.002837 1.651286 -1.139226 3.005593 1.647170 -1.079579 -0.496366 13.010359 5.607621 9.123470 19.574936 -3.945866 -0.000001 0.000000 -0.000000 1.615684 6.197922 -6.270137 -47.593083 0.922564 -57.748198 0.000324 -105.895437 0.000322 6.823988 -6.225599 -12.979593 -6.141230 -11.690799 -6.761707 9.914099 42.595515 3.409878 -0.422802 8.108086 27.509106 -0.000002 0.000001 -0.000001 0.255313 3.378216 -45.814341 5.654093 5.847752 -88.067462 2.162139 4.544810 -50.866362 0.000001 -0.000001 -0.000002 -0.461471 3.841592 -39.722690 6.450750 5.820359 -95.892871 2.182892 4.561568 -51.127733 -0.000002 0.000000 0.000000 0.469723 4.966824 -39.799441 8.181044 5.368616 -113.503011 3.200489 5.218121 -63.022982 0.000001 -0.000000 0.000000 -3.762430 9.063682 -45.253825 5.342531 5.829007 -85.005331 8.716837 5.103335 -119.369181 0.000002 0.000000 -0.000000 2.854406 11.718912 -4.919347 -47.144773 27.196592 83.261959 0.000049 109.196755 -0.000043 -7.168714 18.102059 8.086832 -7.341121 13.749651 7.412345 9.855806 -44.489089 -3.903251 -0.115781 -14.513073 -28.973871 -0.000001 -0.000003 0.000001 -0.124377 -2.384787 45.108871 4.500580 -4.654542 88.071143 1.723229 -3.618379 50.920129 0.000000 -0.000000 -0.000001 -0.761623 -2.932899 39.031068 5.133892 -4.632759 95.881649 1.739742 -3.631704 51.181367 0.000001 0.000000 -0.000004 0.154760 -4.068815 39.122668 6.509732 -4.273601 113.462891 2.549589 -4.153926 63.067337 0.000001 0.000000 -0.000001 -4.198878 -8.025506 44.637772 4.252911 -4.639633 85.014791 6.935966 -4.062627 119.322312 -0.000002 0.000000 -0.000000 -36.550729 3.267615 19.648562 66.328179 -5.559486 3.634427 -21.488590 -8.113405 -17.983734 -7.573191 0.000017 -0.000000 0.000000 -0.000000 0.000000 -20.618910 -10.414935 -40.148272 58.012471 3.520398 -3.940419 -26.408474 -11.478189 26.331344 -1.142230 -0.000015 -0.000001 0.000000 -0.000001 0.000000 
3.883313 68.161072 5.580868 -7.181654 -48.176347 -2.149801 10.235743 8.386591 -0.684173 3.122350 2.279109 -1.586814 3.119291 2.273636 -1.504449 -0.910951 13.066837 6.408897 9.524767 19.798644 -3.670232 0.000001 -0.000000 -0.000000 2.034204 6.755869 -6.235355 -42.961682 -4.385063 -57.734558 0.000046 -108.285498 0.000048 9.636439 -5.639714 -11.535796 -6.141231 -11.690796 -6.761699 9.914096 42.595519 3.409884 -0.422799 8.108088 27.509103 -0.000002 0.000002 -0.000001 0.255313 3.378215 -45.814341 5.654091 5.847753 -88.067462 2.162140 4.544812 -50.866365 -0.000000 0.000002 -0.000002 -0.461472 3.841591 -39.722693 6.450750 5.820356 -95.892871 2.182891 4.561570 -51.127733 -0.000001 -0.000000 0.000002 0.469721 4.966825 -39.799434 8.181043 5.368613 -113.503011 3.200489 5.218120 -63.022982 -0.000001 0.000001 0.000001 -3.762430 9.063683 -45.253821 5.342527 5.829011 -85.005331 8.716838 5.103335 -119.369167 -0.000000 0.000001 0.000001 2.737142 10.830034 -4.592580 -45.090235 26.915079 83.017254 0.000053 112.139801 -0.000058 -5.935413 18.254427 7.482909 -7.341123 13.749652 7.412343 9.855803 -44.489089 -3.903249 -0.115784 -14.513073 -28.973874 0.000000 -0.000000 -0.000002 -0.124374 -2.384785 45.108871 4.500582 -4.654543 88.071143 1.723229 -3.618374 50.920126 0.000000 0.000000 -0.000000 -0.761622 -2.932901 39.031068 5.133890 -4.632757 95.881656 1.739742 -3.631706 51.181374 0.000002 0.000002 -0.000001 0.154762 -4.068816 39.122664 6.509735 -4.273600 113.462898 2.549588 -4.153924 63.067330 0.000002 0.000001 0.000001 -4.198877 -8.025507 44.637769 4.252909 -4.639634 85.014791 6.935968 -4.062631 119.322298 -0.000003 0.000000 -0.000000 -39.549186 0.001115 21.784987 73.810269 -5.062364 2.743859 -19.364932 -16.769597 -21.424324 -12.915203 -0.082883 1.788603 -0.000000 -0.000003 -0.000000 -20.946788 -10.460485 -43.607636 57.552458 7.194044 -4.549241 -25.583114 -12.193252 27.643160 -1.251425 -0.000015 0.000001 -0.000000 -0.000001 0.000000 
